# xmcd
#
# Track frame offsets: 
#        150
#        14835
#        33517
#        46210
#        57420
#        69992
#        81590
#        100872
#        113427
#        127015
#        143070
#        157165
#        171205
#        185047
#
# Disc length: 2677 seconds
#
# Revision: 0
# Processed by: cddbd v1.5.1PL2 Copyright (c) Steve Scherf et al.
# Submitted via: ExactAudioCopy v0.95a3
#
DISCID=c90a730e
DTITLE=João Mulato and Pardinho - João Mulato and Pardinho
DYEAR=2006
DGENRE=Country
TTITLE0=João Mulato and Pardinho - Eu Chego O Aço
TTITLE1=João Mulato and Pardinho - A Nossa Lua-De-Mel
TTITLE2=João Mulato and Pardinho - Por Que Fugiste De Mim?
TTITLE3=João Mulato and Pardinho - Eu Não Vivo Sem Ela
TTITLE4=João Mulato and Pardinho - Minha Ex-Mulher
TTITLE5=João Mulato and Pardinho - Amor Bandido
TTITLE6=João Mulato and Pardinho - Carro Pesado
TTITLE7=João Mulato and Pardinho - Olho Gordo
TTITLE8=João Mulato and Pardinho - Capiau
TTITLE9=João Mulato and Pardinho - A Viola E A Caneta
TTITLE10=João Mulato and Pardinho - Jornal Redondo
TTITLE11=João Mulato and Pardinho - Pagode Da Hora
TTITLE12=João Mulato and Pardinho - Monumento De Paixão
TTITLE13=João Mulato and Pardinho - Peão De Rodeio
EXTD=
EXTT0=
EXTT1=
EXTT2=
EXTT3=
EXTT4=
EXTT5=
EXTT6=
EXTT7=
EXTT8=
EXTT9=
EXTT10=
EXTT11=
EXTT12=
EXTT13=
PLAYORDER=
